<svg version="1.1" xmlns="http://www.w3.org/2000/svg" xmlns:xlink="http://www.w3.org/1999/xlink" x="0px" y="0px" width="100px" height="100px" viewBox="0 0 100 100"
	 overflow="visible" enable-background="new 0 0 100 100" style="color: #29a8de">
	<rect x="20.666" y="21.667" width="10" height="10"/>
	<rect x="33.666" y="21.667" width="10" height="10"/>
	<rect x="46.666" y="21.667" width="10" height="10"/>
	<rect x="59.666" y="21.667" width="10" height="10"/>
	<rect x="20.666" y="34.667" width="10" height="10"/>
	<rect x="33.666" y="34.667" width="10" height="10"/>
	<rect x="46.666" y="34.667" width="10" height="10"/>
	<rect x="59.666" y="34.667" width="10" height="10"/>
	<rect x="20.666" y="47.667" width="10" height="10"/>
	<rect x="33.666" y="47.667" width="10" height="10"/>
	<rect x="46.666" y="47.667" width="10" height="10" style="fill: currentcolor" class="led" />
	<rect x="46.666" y="47.667" width="10" height="10" fill-opacity="0" class="led-glow" >
		<animate
			attributeName="fill-opacity"
			values="0; 0.7; 0"
			dur="3s"
			repeatCount="indefinite" />
	</rect>
	<rect x="59.666" y="47.667" width="10" height="10"/>
	<rect x="20.666" y="60.667" width="10" height="10"/>
	<rect x="33.666" y="60.667" width="10" height="10"/>
	<rect x="46.666" y="60.667" width="10" height="10"/>
	<rect x="59.666" y="60.667" width="10" height="10"/>
</svg>
