<?xml version="1.0" standalone="no"?>
<!DOCTYPE svg PUBLIC "-//W3C//DTD SVG 1.1//EN" "http://www.w3.org/Graphics/SVG/1.1/DTD/svg11.dtd">
<svg width="100%" height="100%" viewBox="0 0 24 24" version="1.1" xmlns="http://www.w3.org/2000/svg" xmlns:xlink="http://www.w3.org/1999/xlink" xml:space="preserve" style="fill-rule:evenodd;clip-rule:evenodd;stroke-linejoin:round;stroke-miterlimit:1.41421;">
    <path d="M7.452,13.233c-0.14,-0.148 -0.258,-0.309 -0.344,-0.494c-0.215,-0.463 -0.215,-1.01 0,-1.473c0.085,-0.184 0.203,-0.346 0.343,-0.494l3.541,-3.545l1.061,1.06c-1.184,1.186 -2.462,2.285 -3.551,3.558c-0.058,0.075 -0.073,0.175 -0.033,0.262c0.014,0.03 0.034,0.054 0.057,0.078l3.527,3.527l-1.061,1.061c-1.18,-1.18 -2.36,-2.36 -3.54,-3.54Z" style="fill:black;fill-rule:nonzero;"/>
    <path d="M12.452,13.233c-0.14,-0.148 -0.258,-0.309 -0.344,-0.494c-0.215,-0.463 -0.215,-1.01 0,-1.473c0.085,-0.184 0.203,-0.346 0.343,-0.494l3.541,-3.545l1.061,1.06c-1.184,1.186 -2.462,2.285 -3.551,3.558c-0.058,0.075 -0.073,0.175 -0.033,0.262c0.014,0.03 0.034,0.054 0.057,0.078l3.527,3.527l-1.061,1.061c-1.18,-1.18 -2.36,-2.36 -3.54,-3.54Z" style="fill:black;fill-rule:nonzero;"/>
</svg>
