<?xml version="1.0" standalone="no"?>
<!DOCTYPE svg PUBLIC "-//W3C//DTD SVG 1.1//EN" "http://www.w3.org/Graphics/SVG/1.1/DTD/svg11.dtd">
<svg width="100%" height="100%" viewBox="0 0 24 24" version="1.1" xmlns="http://www.w3.org/2000/svg" xmlns:xlink="http://www.w3.org/1999/xlink" xml:space="preserve" style="fill-rule:evenodd;clip-rule:evenodd;stroke-linejoin:round;stroke-miterlimit:1.41421;">
    <path d="M16.548,10.767c0.14,0.147 0.258,0.309 0.344,0.494c0.215,0.462 0.215,1.009 0,1.472c-0.085,0.185 -0.203,0.347 -0.343,0.494l-3.541,3.546l-1.061,-1.06c1.184,-1.186 2.462,-2.285 3.551,-3.558c0.058,-0.075 0.073,-0.176 0.033,-0.262c-0.014,-0.031 -0.034,-0.055 -0.057,-0.079l-3.527,-3.526l1.061,-1.061c1.18,1.18 2.36,2.36 3.54,3.54Z" style="fill:black;fill-rule:nonzero;"/>
    <path d="M11.548,10.767c0.14,0.147 0.258,0.309 0.344,0.494c0.215,0.462 0.215,1.009 0,1.472c-0.085,0.185 -0.203,0.347 -0.343,0.494l-3.541,3.546l-1.061,-1.06c1.184,-1.186 2.462,-2.285 3.551,-3.558c0.058,-0.075 0.073,-0.176 0.033,-0.262c-0.014,-0.031 -0.034,-0.055 -0.057,-0.079l-3.527,-3.526l1.061,-1.061c1.18,1.18 2.36,2.36 3.54,3.54Z" style="fill:black;fill-rule:nonzero;"/>
</svg>
