<?xml version="1.0" standalone="no"?>
<!DOCTYPE svg PUBLIC "-//W3C//DTD SVG 1.1//EN" "http://www.w3.org/Graphics/SVG/1.1/DTD/svg11.dtd">
<svg width="100%" height="100%" viewBox="0 0 24 24" version="1.1" xmlns="http://www.w3.org/2000/svg" xmlns:xlink="http://www.w3.org/1999/xlink" xml:space="preserve" style="fill-rule:evenodd;clip-rule:evenodd;stroke-linejoin:round;stroke-miterlimit:1.41421;">
    <path d="M12,3c-1.389,0 -2.7,0.324 -3.874,0.886c0.355,0.357 0.608,0.807 0.749,1.305c0.953,-0.439 2.009,-0.691 3.125,-0.691c4.135,0 7.5,3.365 7.5,7.5c0,4.135 -3.365,7.5 -7.5,7.5c-4.135,0 -7.5,-3.365 -7.5,-7.5c0,-1.116 0.252,-2.172 0.691,-3.125c-0.498,-0.141 -0.948,-0.395 -1.305,-0.749c-0.562,1.174 -0.886,2.485 -0.886,3.874c0,4.971 4.029,9 9,9c4.971,0 9,-4.029 9,-9c0,-4.971 -4.029,-9 -9,-9" style="fill:black;fill-rule:nonzero;"/>
    <path d="M13.5,12c0,-0.828 -0.672,-1.5 -1.5,-1.5c-0.828,0 -1.5,0.672 -1.5,1.5c0,0.828 0.672,1.5 1.5,1.5c0.828,0 1.5,-0.672 1.5,-1.5" style="fill:black;fill-rule:nonzero;"/>
    <path d="M6,7.5c0.828,0 1.5,-0.672 1.5,-1.5c0,-0.828 -0.672,-1.5 -1.5,-1.5c-0.828,0 -1.5,0.672 -1.5,1.5c0,0.828 0.672,1.5 1.5,1.5" style="fill:black;fill-rule:nonzero;"/>
</svg>
