<?xml version="1.0" standalone="no"?>
<!DOCTYPE svg PUBLIC "-//W3C//DTD SVG 1.1//EN" "http://www.w3.org/Graphics/SVG/1.1/DTD/svg11.dtd">
<svg width="100%" height="100%" viewBox="0 0 24 24" version="1.1" xmlns="http://www.w3.org/2000/svg" xmlns:xlink="http://www.w3.org/1999/xlink" xml:space="preserve" style="fill-rule:evenodd;clip-rule:evenodd;stroke-linejoin:round;stroke-miterlimit:1.41421;">
    <path d="M9.453,20.026l-2.703,1.352l0,-4.169l3.256,-1.628l0,3.551c0,0.378 -0.214,0.725 -0.553,0.894M2.547,20.026c-0.339,-0.169 -0.553,-0.516 -0.553,-0.894l0,-3.551l3.256,1.628l0,4.169l-2.703,-1.352ZM5.553,12.963c0.141,-0.07 0.294,-0.106 0.447,-0.106c0.153,0 0.306,0.036 0.447,0.106l2.72,1.36l-3.167,1.583l-3.167,-1.583l2.72,-1.36ZM10.124,13.124l-3.006,-1.503c-0.345,-0.172 -0.732,-0.264 -1.118,-0.264c-0.386,0 -0.773,0.092 -1.118,0.264l-3.006,1.503c-0.852,0.427 -1.382,1.283 -1.382,2.236l0,3.772c0,0.952 0.53,1.809 1.382,2.236l3.006,1.503c0.345,0.172 0.732,0.264 1.118,0.264c0.386,0 0.773,-0.092 1.118,-0.264l3.006,-1.503c0.852,-0.427 1.382,-1.283 1.382,-2.236l0,-3.772c0,-0.953 -0.53,-1.809 -1.382,-2.236" style="fill:black;fill-rule:nonzero;"/>
    <path d="M21.453,20.03l-2.703,1.352l0,-4.169l3.256,-1.628l0,3.551c0,0.378 -0.214,0.725 -0.553,0.894M14.547,20.03c-0.339,-0.169 -0.553,-0.516 -0.553,-0.894l0,-3.551l3.256,1.628l0,4.169l-2.703,-1.352ZM17.553,12.967c0.141,-0.07 0.294,-0.106 0.447,-0.106c0.153,0 0.306,0.036 0.447,0.106l2.72,1.36l-3.167,1.583l-3.167,-1.583l2.72,-1.36ZM22.124,13.128l-3.006,-1.503c-0.345,-0.172 -0.732,-0.264 -1.118,-0.264c-0.386,0 -0.773,0.092 -1.118,0.264l-3.006,1.503c-0.852,0.427 -1.382,1.283 -1.382,2.236l0,3.772c0,0.952 0.53,1.809 1.382,2.236l3.006,1.503c0.345,0.172 0.732,0.264 1.118,0.264c0.386,0 0.773,-0.092 1.118,-0.264l3.006,-1.503c0.852,-0.427 1.382,-1.283 1.382,-2.236l0,-3.772c0,-0.953 -0.53,-1.809 -1.382,-2.236" style="fill:black;fill-rule:nonzero;"/>
    <path d="M8.547,9.53c-0.339,-0.169 -0.553,-0.516 -0.553,-0.894l0,-3.551l3.256,1.628l0,4.169l-2.703,-1.352ZM11.553,2.467c0.141,-0.07 0.294,-0.106 0.447,-0.106c0.153,0 0.306,0.036 0.447,0.106l2.72,1.36l-3.167,1.583l-3.167,-1.583l2.72,-1.36ZM15.453,9.53l-2.703,1.352l0,-4.169l3.256,-1.628l0,3.551c0,0.378 -0.214,0.725 -0.553,0.894M16.124,10.872c0.852,-0.427 1.382,-1.283 1.382,-2.236l0,-3.772c0,-0.953 -0.53,-1.809 -1.382,-2.236l-3.006,-1.503c-0.345,-0.172 -0.732,-0.264 -1.118,-0.264c-0.386,0 -0.773,0.092 -1.118,0.264l-3.006,1.503c-0.852,0.427 -1.382,1.283 -1.382,2.236l0,3.772c0,0.952 0.53,1.809 1.382,2.236l3.006,1.503c0.345,0.172 0.732,0.264 1.118,0.264c0.386,0 0.773,-0.092 1.118,-0.264l3.006,-1.503Z" style="fill:black;fill-rule:nonzero;"/>
</svg>
