<?xml version="1.0" standalone="no"?>
<!DOCTYPE svg PUBLIC "-//W3C//DTD SVG 1.1//EN" "http://www.w3.org/Graphics/SVG/1.1/DTD/svg11.dtd">
<svg width="100%" height="100%" viewBox="0 0 24 24" version="1.1" xmlns="http://www.w3.org/2000/svg" xmlns:xlink="http://www.w3.org/1999/xlink" xml:space="preserve" style="fill-rule:evenodd;clip-rule:evenodd;stroke-linejoin:round;stroke-miterlimit:1.41421;">
	<path d="M18.375 16.625h-9v-13h9v13zm-10.5-14.5v15c0 .552.447 1 1 1h11v-16h-12z"/>
	<path d="M14.125 20.375h-8.25c-.137 0-.25-.112-.25-.25V6.875h1.25v-1.5h-2.75v14.75c0 .965.786 1.75 1.75 1.75h9.75v-2.75h-1.5v1.25z"/>
	<circle cx="14" cy="6.5" r="1.5"/>
	<path d="M14.75 9h.75v1.5h-.75v3H16V15h-4v-1.5h1.25v-3h-.75V9h.75v-.004h1.5V9z"/>
</svg>