<?xml version="1.0" standalone="no"?>
<!DOCTYPE svg PUBLIC "-//W3C//DTD SVG 1.1//EN" "http://www.w3.org/Graphics/SVG/1.1/DTD/svg11.dtd">
<svg width="100%" height="100%" viewBox="0 0 24 24" version="1.1" xmlns="http://www.w3.org/2000/svg" xmlns:xlink="http://www.w3.org/1999/xlink" xml:space="preserve" style="fill-rule:evenodd;clip-rule:evenodd;stroke-linejoin:round;stroke-miterlimit:1.41421;">
    <path d="M18.052,15.315c0,0.287 -0.162,0.549 -0.418,0.677l-5.296,2.648c-0.107,0.053 -0.222,0.08 -0.338,0.08c-0.116,0 -0.232,-0.027 -0.339,-0.08l-5.296,-2.648c-0.256,-0.128 -0.418,-0.39 -0.418,-0.677l0,-6.63c0,-0.287 0.162,-0.549 0.418,-0.677l5.296,-2.648c0.107,-0.053 0.223,-0.08 0.339,-0.08c0.116,0 0.231,0.027 0.338,0.08l5.296,2.648c0.256,0.128 0.418,0.39 0.418,0.677l0,6.63ZM18.305,6.666l-5.296,-2.648c-0.312,-0.155 -0.661,-0.238 -1.009,-0.238c-0.349,0 -0.698,0.083 -1.009,0.238l-5.296,2.648c-0.77,0.385 -1.248,1.159 -1.248,2.019l0,6.63c0,0.86 0.478,1.634 1.247,2.018l5.296,2.648c0.312,0.156 0.661,0.239 1.01,0.239c0.348,0 0.697,-0.083 1.008,-0.238l5.297,-2.649c0.769,-0.384 1.247,-1.158 1.247,-2.018l0,-6.63c0,-0.86 -0.478,-1.634 -1.247,-2.019" style="fill:black;fill-rule:nonzero;"/>
</svg>
