<?xml version="1.0" standalone="no"?>
<!DOCTYPE svg PUBLIC "-//W3C//DTD SVG 1.1//EN" "http://www.w3.org/Graphics/SVG/1.1/DTD/svg11.dtd">
<svg width="100%" height="100%" viewBox="0 0 24 24" version="1.1" xmlns="http://www.w3.org/2000/svg" xmlns:xlink="http://www.w3.org/1999/xlink" xml:space="preserve" style="fill-rule:evenodd;clip-rule:evenodd;stroke-linejoin:round;stroke-miterlimit:1.41421;">
    <path d="M9,3.749l-0.001,-1.5l-5,0.004c-0.965,0 -1.749,0.785 -1.749,1.75l0,4.996l1.5,0l0,-4.185l4.629,4.625l1.061,-1.06l-4.631,-4.627l4.191,-0.003Z" style="fill:black;fill-rule:nonzero;"/>
    <path d="M8.38,14.56l-4.63,4.626l0,-4.187l-1.5,0l0,4.998c0,0.964 0.785,1.75 1.749,1.75l5.001,0.002l0.001,-1.5l-4.191,-0.002l4.631,-4.626l-1.061,-1.061Z" style="fill:black;fill-rule:nonzero;"/>
    <path d="M20.001,2.249l-5.001,-0.004l-0.001,1.5l4.195,0.003l-4.634,4.631l1.06,1.06l4.63,-4.625l0,4.181l1.5,0l0,-4.996c0,-0.965 -0.785,-1.75 -1.749,-1.75" style="fill:black;fill-rule:nonzero;"/>
    <path d="M20.25,19.186l-4.629,-4.626l-1.061,1.061l4.634,4.63l-4.194,0.004l0,1.5l5.001,-0.004c0.964,0 1.749,-0.785 1.749,-1.75l0,-4.996l-1.5,0l0,4.181Z" style="fill:black;fill-rule:nonzero;"/>
</svg>
