<?xml version="1.0" standalone="no"?>
<!DOCTYPE svg PUBLIC "-//W3C//DTD SVG 1.1//EN" "http://www.w3.org/Graphics/SVG/1.1/DTD/svg11.dtd">
<svg width="100%" height="100%" viewBox="0 0 24 24" version="1.1" xmlns="http://www.w3.org/2000/svg" xmlns:xlink="http://www.w3.org/1999/xlink" xml:space="preserve" style="fill-rule:evenodd;clip-rule:evenodd;stroke-linejoin:round;stroke-miterlimit:1.41421;">
    <path d="M12,20.5c-3.046,0 -5.716,-1.616 -7.217,-4.031l0.161,0.066l1.75,-4.25c0.08,-0.196 0.074,-0.416 -0.016,-0.607l-1.936,-4.08c0.595,-0.977 1.379,-1.824 2.305,-2.491l1.203,1.203l0,2.69c0,0.116 0.028,0.231 0.079,0.335l3,6c0.1,0.199 0.283,0.343 0.499,0.394c0.057,0.014 0.115,0.021 0.172,0.021c0.161,0 0.319,-0.052 0.45,-0.151l4,-3c0.167,-0.125 0.275,-0.314 0.296,-0.522l0.283,-2.745l2.837,-0.543c0.406,0.992 0.634,2.075 0.634,3.211c0,4.687 -3.813,8.5 -8.5,8.5M3.922,9.369l1.258,2.652l-1.172,2.847c-0.323,-0.898 -0.508,-1.861 -0.508,-2.868c0,-0.919 0.151,-1.802 0.422,-2.631M19.138,7.401l-2.939,0.563c-0.325,0.061 -0.571,0.33 -0.605,0.659l-0.306,2.973l-3.019,2.264l-2.519,-5.037l0,-2.823c0,-0.2 -0.079,-0.39 -0.22,-0.531l-1.149,-1.149c1.1,-0.52 2.324,-0.82 3.619,-0.82c2.992,0 5.623,1.558 7.138,3.901M12,2c-5.519,0 -10,4.481 -10,10c0,5.519 4.481,10 10,10c5.519,0 10,-4.481 10,-10c0,-5.519 -4.481,-10 -10,-10" style="fill:black;fill-rule:nonzero;"/>
</svg>
