<?xml version="1.0" standalone="no"?>
<!DOCTYPE svg PUBLIC "-//W3C//DTD SVG 1.1//EN" "http://www.w3.org/Graphics/SVG/1.1/DTD/svg11.dtd">
<svg width="100%" height="100%" viewBox="0 0 24 24" version="1.1" xmlns="http://www.w3.org/2000/svg" xmlns:xlink="http://www.w3.org/1999/xlink" xml:space="preserve" style="fill-rule:evenodd;clip-rule:evenodd;stroke-linejoin:round;stroke-miterlimit:1.41421;">
    <path d="M12.055,2l-11,10l1.889,0l0,9.02c0,0.524 0.423,0.949 0.944,0.949l7.223,0l0,-3.768l1.888,0l0.001,3.768l7.103,0.031l0.008,0c0.521,0 0.944,-0.424 0.944,-0.949l0,-9.011l1.889,-0.04l-10.889,-10ZM12.05,4.032l7.505,6.892l0,9.574l-5.055,-0.023l-0.001,-2.274l0,-1.5l-1.5,0l-1.888,0l-1.5,0l0,3.768l-5.167,0l0,-8.469l0,-1.054l7.606,-6.914" style="fill:black;fill-rule:nonzero;"/>
</svg>
