<?xml version="1.0" standalone="no"?>
<!DOCTYPE svg PUBLIC "-//W3C//DTD SVG 1.1//EN" "http://www.w3.org/Graphics/SVG/1.1/DTD/svg11.dtd">
<svg width="100%" height="100%" viewBox="0 0 24 24" version="1.1" xmlns="http://www.w3.org/2000/svg" xmlns:xlink="http://www.w3.org/1999/xlink" xml:space="preserve" style="fill-rule:evenodd;clip-rule:evenodd;stroke-linejoin:round;stroke-miterlimit:1.41421;">
    <path d="M12.75,18.948l0,-7.412c0.846,-0.341 2.457,-1.153 5.75,-2.892l0,7.429l-5.75,2.875ZM5.5,8.588l5.75,2.874l0,7.486l-5.75,-2.875l0,-7.485ZM12,4.677l5.546,2.773c-3.208,1.687 -4.896,2.514 -5.469,2.75l-5.561,-2.781l5.484,-2.742ZM19.447,6.724l-7,-3.5c-0.14,-0.071 -0.294,-0.106 -0.447,-0.106c-0.153,0 -0.306,0.035 -0.447,0.106l-7,3.5c-0.339,0.169 -0.553,0.515 -0.553,0.894l0,8.764c0,0.379 0.214,0.725 0.553,0.894l7,3.5c0.141,0.071 0.294,0.106 0.447,0.106c0.153,0 0.307,-0.035 0.447,-0.106l7,-3.5c0.339,-0.169 0.553,-0.515 0.553,-0.894l0,-8.764c0,-0.379 -0.214,-0.725 -0.553,-0.894" style="fill:black;fill-rule:nonzero;"/>
</svg>
