<?xml version="1.0" standalone="no"?>
<!DOCTYPE svg PUBLIC "-//W3C//DTD SVG 1.1//EN" "http://www.w3.org/Graphics/SVG/1.1/DTD/svg11.dtd">
<svg width="100%" height="100%" viewBox="0 0 24 24" version="1.1" xmlns="http://www.w3.org/2000/svg" xmlns:xlink="http://www.w3.org/1999/xlink" xml:space="preserve" style="fill-rule:evenodd;clip-rule:evenodd;stroke-linejoin:round;stroke-miterlimit:1.41421;">
    <path d="M12,2c5.519,0 10,4.481 10,10c0,5.519 -4.481,10 -10,10c-5.519,0 -10,-4.481 -10,-10c0,-5.519 4.481,-10 10,-10ZM10,17.5l0,-2l-2,0l0,2l2,0ZM13,14.5l0,-2l-2,0l0,2l2,0ZM10,14.5l0,-2l-2,0l0,2l2,0ZM16,14.5l0,-2l-2,0l0,2l2,0ZM10,11.5l0,-2l-2,0l0,2l2,0ZM16,11.5l0,-2l-2,0l0,2l2,0ZM13,8.5l0,-2l-2,0l0,2l2,0ZM10,8.5l0,-2l-2,0l0,2l2,0ZM16,8.5l0,-2l-2,0l0,2l2,0Z" style="fill:black;"/>
</svg>
