<?xml version="1.0" standalone="no"?>
<!DOCTYPE svg PUBLIC "-//W3C//DTD SVG 1.1//EN" "http://www.w3.org/Graphics/SVG/1.1/DTD/svg11.dtd">
<svg width="100%" height="100%" viewBox="0 0 24 24" version="1.1" xmlns="http://www.w3.org/2000/svg" xmlns:xlink="http://www.w3.org/1999/xlink" xml:space="preserve" style="fill-rule:evenodd;clip-rule:evenodd;stroke-linejoin:round;stroke-miterlimit:1.41421;">
    <path d="M6.475,15.751c0.008,0.083 0.025,0.164 0.025,0.249c0,0.479 -0.142,0.922 -0.376,1.302l3.766,2.37c0.287,-0.455 0.715,-0.808 1.224,-1.002l-4.639,-2.919Z" style="fill:black;fill-rule:nonzero;"/>
    <path d="M17.526,15.746l-4.641,2.923c0.51,0.194 0.937,0.547 1.225,1.002l3.765,-2.372c-0.233,-0.38 -0.375,-0.822 -0.375,-1.299c0,-0.087 0.017,-0.169 0.026,-0.254" style="fill:black;fill-rule:nonzero;"/>
    <path d="M19.981,10.498c-0.565,-0.004 -1.079,-0.203 -1.496,-0.524l-0.032,4.078c0.417,-0.332 0.934,-0.538 1.505,-0.548l0.023,-3.006Z" style="fill:black;fill-rule:nonzero;"/>
    <path d="M4.007,10.499l0.008,3.002c0.567,0.003 1.083,0.203 1.501,0.524l-0.01,-4.042c-0.419,0.318 -0.934,0.515 -1.499,0.516" style="fill:black;fill-rule:nonzero;"/>
    <path d="M17.522,8.22c-0.007,-0.074 -0.022,-0.145 -0.022,-0.22c0,-0.486 0.145,-0.937 0.386,-1.321l-3.773,-2.358c-0.285,0.455 -0.711,0.81 -1.219,1.006l4.628,2.893Z" style="fill:black;fill-rule:nonzero;"/>
    <path d="M6.476,8.238l4.635,-2.909c-0.509,-0.195 -0.936,-0.549 -1.222,-1.004l-3.769,2.366c0.237,0.382 0.38,0.828 0.38,1.309c0,0.082 -0.016,0.159 -0.024,0.238" style="fill:black;fill-rule:nonzero;"/>
    <path d="M17.54,8.391l-4.789,2.391l0,-5.409c-0.239,0.075 -0.487,0.126 -0.75,0.126c-0.263,0 -0.512,-0.051 -0.75,-0.126l0,5.439l-4.792,-2.399c-0.087,0.515 -0.326,0.979 -0.678,1.338l4.511,2.259l-4.503,2.248c0.35,0.36 0.587,0.825 0.671,1.342l4.791,-2.393l0,5.42c0.238,-0.075 0.487,-0.128 0.75,-0.128c0.263,0 0.511,0.053 0.75,0.128l0,-5.387l4.786,2.396c0.077,-0.518 0.308,-0.985 0.653,-1.351l-4.543,-2.274l4.559,-2.277c-0.348,-0.36 -0.584,-0.827 -0.666,-1.343" style="fill:black;fill-rule:nonzero;"/>
    <path d="M4,9.5c0.828,0 1.5,-0.672 1.5,-1.5c0,-0.828 -0.672,-1.5 -1.5,-1.5c-0.828,0 -1.5,0.672 -1.5,1.5c0,0.828 0.672,1.5 1.5,1.5" style="fill:black;fill-rule:nonzero;"/>
    <path d="M12,4.5c0.828,0 1.5,-0.672 1.5,-1.5c0,-0.828 -0.672,-1.5 -1.5,-1.5c-0.828,0 -1.5,0.672 -1.5,1.5c0,0.828 0.672,1.5 1.5,1.5" style="fill:black;fill-rule:nonzero;"/>
    <path d="M4,14.5c-0.828,0 -1.5,0.672 -1.5,1.5c0,0.828 0.672,1.5 1.5,1.5c0.828,0 1.5,-0.672 1.5,-1.5c0,-0.828 -0.672,-1.5 -1.5,-1.5" style="fill:black;fill-rule:nonzero;"/>
    <path d="M12,19.5c-0.828,0 -1.5,0.672 -1.5,1.5c0,0.828 0.672,1.5 1.5,1.5c0.828,0 1.5,-0.672 1.5,-1.5c0,-0.828 -0.672,-1.5 -1.5,-1.5" style="fill:black;fill-rule:nonzero;"/>
    <path d="M20,14.5c-0.828,0 -1.5,0.672 -1.5,1.5c0,0.828 0.672,1.5 1.5,1.5c0.828,0 1.5,-0.672 1.5,-1.5c0,-0.828 -0.672,-1.5 -1.5,-1.5" style="fill:black;fill-rule:nonzero;"/>
    <path d="M20,9.5c0.828,0 1.5,-0.672 1.5,-1.5c0,-0.828 -0.672,-1.5 -1.5,-1.5c-0.828,0 -1.5,0.672 -1.5,1.5c0,0.828 0.672,1.5 1.5,1.5" style="fill:black;fill-rule:nonzero;"/>
</svg>
