<?xml version="1.0" standalone="no"?>
<!DOCTYPE svg PUBLIC "-//W3C//DTD SVG 1.1//EN" "http://www.w3.org/Graphics/SVG/1.1/DTD/svg11.dtd">
<svg width="100%" height="100%" viewBox="0 0 24 24" version="1.1" xmlns="http://www.w3.org/2000/svg" xmlns:xlink="http://www.w3.org/1999/xlink" xml:space="preserve" style="fill-rule:evenodd;clip-rule:evenodd;stroke-linejoin:round;stroke-miterlimit:1.41421;">
    <path d="M8.65 14.248c-.376-.46-.697-.962-.955-1.496-.335-.695-.56-1.44-.668-2.205-.11-.787-.096-1.59.044-2.373.13-.726.37-1.432.71-2.09.75-1.448 1.96-2.636 3.43-3.343.64-.3 1.32-.52 2.02-.64.35-.05.69-.08 1.04-.09h.29c.35.01.7.03 1.04.09.7.11 1.39.32 2.03.62 1.53.717 2.8 1.95 3.55 3.466.32.63.54 1.31.67 2.006.14.78.16 1.584.05 2.37-.106.76-.332 1.51-.667 2.204-.393.81-.933 1.55-1.586 2.174-.675.643-1.472 1.16-2.34 1.515-.895.365-1.862.553-2.832.553s-1.933-.186-2.83-.553c-.684-.28-1.325-.66-1.9-1.13-2.09 2.21-4.294 4.307-6.437 6.464-.09.08-.186.15-.3.187-.1.034-.205.046-.31.035-.072-.01-.145-.03-.213-.058-.308-.13-.497-.455-.454-.79.02-.15.088-.28.184-.395 2.09-2.23 4.3-4.343 6.46-6.506zM14.377 3.5c-.28.006-.56.027-.836.07-.56.085-1.1.25-1.62.49-1.16.542-2.13 1.457-2.74 2.58-.28.518-.48 1.075-.6 1.65-.13.65-.15 1.318-.07 1.974.08.612.25 1.21.52 1.77.31.655.73 1.253 1.25 1.758.54.523 1.17.945 1.86 1.236.715.302 1.486.462 2.26.472.777.01 1.554-.13 2.277-.416.695-.275 1.34-.682 1.885-1.192.53-.492.97-1.08 1.29-1.726.276-.55.464-1.144.557-1.753.1-.63.09-1.273-.01-1.9-.094-.56-.266-1.103-.51-1.613-.58-1.197-1.555-2.185-2.744-2.776-.505-.252-1.047-.43-1.603-.53-.273-.05-.55-.077-.83-.09-.1-.003-.204-.004-.31-.004z"/>
</svg>
